<?xml version="1.0" encoding="UTF-8" standalone="no"?>
<!DOCTYPE svg PUBLIC "-//W3C//DTD SVG 1.1//EN" "http://www.w3.org/Graphics/SVG/1.1/DTD/svg11.dtd"[]>
<!-- Generated by graphviz version 13.1.0 (20250701.0955)
 -->
<!-- Title: schema Pages: 1 -->
<svg width="210pt" height="75pt" viewBox="0.00 0.00 210.00 75.00" xmlns="http://www.w3.org/2000/svg" xmlns:xlink="http://www.w3.org/1999/xlink">
  <g id="graph0" class="graph" transform="scale(1 1) rotate(0) translate(4 71)">
    <title>schema</title>
    <polygon fill="white" stroke="none" points="-4,4 -4,-71 206,-71 206,4 -4,4" />
    <!-- Store -->
    <g id="node1" class="node">
      <title>Store</title>
      <g id="a_node1">
        <a xlink:title="StoreID">
          <polygon fill="#003366" stroke="none" points="8,-33.5 8,-63 63,-63 63,-33.5 8,-33.5" />
          <polygon fill="none" stroke="black" points="8,-33.5 8,-63 63,-63 63,-33.5 8,-33.5" />
          <text xml:space="preserve" text-anchor="start" x="18.62" y="-45.7" font-family="Segoe UI" font-weight="bold" font-size="14.00" fill="white">Store</text>
          <polygon fill="#eeeeee" stroke="none" points="8,-4 8,-33.5 63,-33.5 63,-4 8,-4" />
          <polygon fill="none" stroke="black" points="8,-4 8,-33.5 63,-33.5 63,-4 8,-4" />
          <text xml:space="preserve" text-anchor="start" x="13" y="-15.2" font-family="Segoe UI" font-size="14.00">StoreID</text>
        </a>
      </g>
    </g>
    <!-- Discount -->
    <g id="node2" class="node">
      <title>Discount</title>
      <g id="a_node2">
        <a xlink:title="DiscountID">
          <polygon fill="#003366" stroke="none" points="115,-33.5 115,-63 194,-63 194,-33.5 115,-33.5" />
          <polygon fill="none" stroke="black" points="115,-33.5 115,-63 194,-63 194,-33.5 115,-33.5" />
          <text xml:space="preserve" text-anchor="start" x="126" y="-45.7" font-family="Segoe UI" font-weight="bold" font-size="14.00" fill="white">Discount</text>
          <polygon fill="#eeeeee" stroke="none" points="115,-4 115,-33.5 194,-33.5 194,-4 115,-4" />
          <polygon fill="none" stroke="black" points="115,-4 115,-33.5 194,-33.5 194,-4 115,-4" />
          <text xml:space="preserve" text-anchor="start" x="120" y="-15.2" font-family="Segoe UI" font-size="14.00">DiscountID</text>
        </a>
      </g>
    </g>
    <!-- Store&#45;&gt;Discount -->
    <g id="edge1" class="edge">
      <title>Store-&gt;Discount</title>
      <path fill="none" stroke="#aaaaaa" stroke-width="1.5" d="M70.97,-33.5C78.58,-33.5 86.84,-33.5 95.11,-33.5" />
      <polygon fill="#aaaaaa" stroke="#aaaaaa" stroke-width="1.5" points="94.86,-37 104.86,-33.5 94.86,-30 94.86,-37" />
    </g>
  </g>
</svg>